<?xml version="1.0" encoding="utf-8"?>
<!-- Generator: Adobe Illustrator 23.0.3, SVG Export Plug-In . SVG Version: 6.00 Build 0)  -->
<svg version="1.1" id="Layer_1" xmlns="http://www.w3.org/2000/svg" xmlns:xlink="http://www.w3.org/1999/xlink" x="0px" y="0px"
	 viewBox="0 0 67 67" style="enable-background:new 0 0 67 67;" xml:space="preserve">
<style type="text/css">
	.st0{fill-rule:evenodd;clip-rule:evenodd;fill:#010101;}
</style>
<path class="st0" d="M43,25.2L43,25.2c0.6,0,1.1,0,1.7,0c0.7,0,1.3-0.6,1.3-1.4c0-1.1,0-2.1,0-3.2c0-0.8-0.6-1.4-1.4-1.4
	c-1.1,0-2.1,0-3.2,0c-0.8,0-1.4,0.6-1.4,1.4c0,1.1,0,2.1,0,3.2c0,0.2,0,0.3,0.1,0.5c0.2,0.6,0.7,0.9,1.3,0.9
	C42,25.2,42.5,25.2,43,25.2z M32.7,26.6c-3.8,0-6.8,3-6.9,6.8c-0.1,3.8,3,6.9,6.7,7c3.8,0.1,6.9-3,7-6.7
	C39.6,29.7,36.5,26.5,32.7,26.6z M19.4,30.2L19.4,30.2c0,5.1,0,10.1,0,15.1c0,0.7,0.6,1.3,1.3,1.3c7.9,0,15.9,0,23.8,0
	c0.7,0,1.3-0.6,1.3-1.3c0-5,0-10,0-15v-0.1h-3.2c0.5,1.5,0.6,2.9,0.4,4.5c-0.2,1.5-0.7,2.9-1.5,4.2c-0.8,1.3-1.8,2.4-3.1,3.2
	c-3.3,2.2-7.6,2.4-11,0.5c-1.8-1-3.1-2.4-4.1-4.1c-1.4-2.6-1.7-5.4-0.8-8.3C21.6,30.2,20.5,30.2,19.4,30.2z M46.2,50.3
	c0.2,0,0.4-0.1,0.5-0.1c1.4-0.3,2.5-1.4,2.8-2.8c0-0.2,0-0.3,0.1-0.5V19.9c0-0.1,0-0.3-0.1-0.4c-0.3-1.5-1.5-2.7-3.1-2.9
	c-0.1,0-0.1,0-0.2,0H19.1c-0.2,0-0.3,0.1-0.5,0.1c-1.5,0.3-2.6,1.5-2.8,3.1c0,0.1,0,0.1,0,0.2V47c0,0.2,0.1,0.3,0.1,0.5
	c0.3,1.5,1.6,2.6,3.1,2.8c0.1,0,0.1,0,0.2,0H46.2z M32.7,66.7c-18.4,0-33.3-14.9-33.3-33.3C-0.6,15,14.3,0.1,32.7,0.1S66,15,66,33.4
	C66,51.8,51.1,66.7,32.7,66.7z"/>
</svg>
