<?xml version="1.0" encoding="utf-8"?>
<!-- Generator: Adobe Illustrator 23.0.3, SVG Export Plug-In . SVG Version: 6.00 Build 0)  -->
<svg version="1.1" id="Layer_1" xmlns="http://www.w3.org/2000/svg" xmlns:xlink="http://www.w3.org/1999/xlink" x="0px" y="0px"
	 viewBox="0 0 67 67" style="enable-background:new 0 0 67 67;" xml:space="preserve">
<style type="text/css">
	.st0{fill-rule:evenodd;clip-rule:evenodd;fill:#010101;}
</style>
<path class="st0" d="M52.2,49.2v-13c0-7-3.7-10.2-8.7-10.2c-4,0-5.8,2.2-6.8,3.7v-3.2h-7.5c0.1,2.1,0,22.6,0,22.6h7.5V36.5
	c0-0.7,0-1.4,0.2-1.8c0.5-1.4,1.8-2.8,3.9-2.8c2.7,0,3.8,2.1,3.8,5.1v12.1L52.2,49.2L52.2,49.2z M21.3,23.4c2.6,0,4.3-1.7,4.3-3.9
	c0-2.2-1.6-3.9-4.2-3.9s-4.3,1.7-4.3,3.9C17.1,21.7,18.7,23.4,21.3,23.4L21.3,23.4z M33.5,66.7c-18.4,0-33.2-14.9-33.2-33.2
	c0-18.4,14.9-33.2,33.2-33.2s33.2,14.9,33.2,33.2C66.7,51.9,51.9,66.7,33.5,66.7z M25,49.2V26.5h-7.5v22.6H25z"/>
</svg>
