<svg enable-background="new -362.4 459.1 500 500" viewBox="-362.4 459.1 500 500" xmlns="http://www.w3.org/2000/svg" xmlns:xlink="http://www.w3.org/1999/xlink"><radialGradient id="a" cx="-1002.9117" cy="1088.6686" gradientTransform="matrix(545.6736 0 0 -528.3113 547071.625 575749.0625)" gradientUnits="userSpaceOnUse" r=".6371"><stop offset="0" stop-color="#34364e" stop-opacity=".98"/><stop offset="1" stop-color="#0c0824"/></radialGradient><path d="m-341.6 493.3h457.5v445h-457.5z" fill="url(#a)"/><path d="m-341.6 493.3h457.5v445h-457.5zm-20.8 465.8h499v-486.6h-499zm336.5-286.9c-16.4 0-22 8.3-22 15.2 0 7.5 3.7 12.7 25.8 24.1 32.6 15.8 42.8 31 42.8 53.2 0 33.3-25.4 51.2-59.7 51.2-18.1 0-33.7-3.7-42.6-8.9-1.5-.6-1.7-1.7-1.7-3.3v-30.7c0-2.1 1-2.7 2.5-1.7 13.1 8.5 28.1 12.3 41.8 12.3 16.4 0 23.3-6.9 23.3-16.2 0-7.5-4.8-14.1-25.8-25-29.5-14.1-41.8-28.4-41.8-52.4 0-26.8 21-49.1 57.4-49.1 17.9 0 30.4 2.7 37.2 5.8 1.7 1 2.1 2.7 2.1 4.2v28.5c0 1.7-1 2.7-3.1 2.1-9.2-5.8-22.7-9.3-36.2-9.3zm-178.8 24.7c4.8.4 8.5.4 16.8.4 24.3 0 47.2-8.5 47.2-41.6 0-26.4-16.4-39.7-44.1-39.7-8.3 0-16.2.4-20 .6zm-37.1-110.4c0-1.5 2.9-2.5 4.6-2.5 13.3-.6 33.1-1 53.6-1 57.6 0 80.1 31.6 80.1 71.9 0 52.8-38.3 75.5-85.3 75.5-7.9 0-10.6-.4-16.2-.4v79.8c0 1.7-.6 2.5-2.5 2.5h-31.8c-1.7 0-2.5-.6-2.5-2.5z" fill="#31c5f0"/></svg>