<svg id="Layer_1" data-name="Layer 1" xmlns="http://www.w3.org/2000/svg" xmlns:xlink="http://www.w3.org/1999/xlink" viewBox="0 0 335.76 427.05"><defs><style>.cls-1{fill:#80152a;}.cls-2{fill:url(#linear-gradient);}.cls-3{fill:#8a2034;}.cls-4{fill:url(#linear-gradient-2);}.cls-5{fill:#ae2338;}.cls-6{fill:url(#linear-gradient-3);}.cls-7{fill:#8c2033;}.cls-8{fill:url(#linear-gradient-4);}.cls-9{fill:url(#linear-gradient-5);}.cls-10{fill:url(#linear-gradient-6);}.cls-11{fill:url(#linear-gradient-7);}.cls-12{fill:url(#linear-gradient-8);}.cls-13{fill:url(#linear-gradient-9);}.cls-14{fill:url(#linear-gradient-10);}.cls-15{fill:url(#linear-gradient-11);}.cls-16{fill:#f7dee1;}.cls-17{fill:#fff;}.cls-18{fill:#d7c4c9;}.cls-19{fill:#c2c3c6;}.cls-20{fill:#ddc3c8;}.cls-21{fill:url(#linear-gradient-12);}.cls-22{fill:url(#linear-gradient-13);}</style><linearGradient id="linear-gradient" x1="139.86" y1="300" x2="460.14" y2="300" gradientUnits="userSpaceOnUse"><stop offset="0.08" stop-color="#aa2237"/><stop offset="0.98" stop-color="#b4313d"/></linearGradient><linearGradient id="linear-gradient-2" x1="77.88" y1="54.93" x2="170.46" y2="54.93" gradientUnits="userSpaceOnUse"><stop offset="0.04" stop-color="#b83a41"/><stop offset="0.9" stop-color="#bf4a50"/></linearGradient><linearGradient id="linear-gradient-3" x1="43.58" y1="287.29" x2="43.58" y2="193.67" gradientUnits="userSpaceOnUse"><stop offset="0.04" stop-color="#a92237"/><stop offset="0.94" stop-color="#972235"/></linearGradient><linearGradient id="linear-gradient-4" x1="124.15" y1="418.54" x2="124.15" y2="287.29" gradientUnits="userSpaceOnUse"><stop offset="0.04" stop-color="#bc4245"/><stop offset="0.94" stop-color="#a42136"/></linearGradient><linearGradient id="linear-gradient-5" x1="216.87" y1="102.12" x2="216.87" y2="8.77" gradientUnits="userSpaceOnUse"><stop offset="0.04" stop-color="#cc5057"/><stop offset="0.9" stop-color="#b73840"/></linearGradient><linearGradient id="linear-gradient-6" x1="255.98" y1="89.46" x2="295.63" y2="66.57" gradientUnits="userSpaceOnUse"><stop offset="0.08" stop-color="#d4575f"/><stop offset="0.94" stop-color="#b63540"/></linearGradient><linearGradient id="linear-gradient-7" x1="263.29" y1="148.44" x2="327.77" y2="148.44" gradientUnits="userSpaceOnUse"><stop offset="0" stop-color="#c04b51"/><stop offset="1" stop-color="#b83a41"/></linearGradient><linearGradient id="linear-gradient-8" x1="263.04" y1="240.82" x2="327.64" y2="240.82" gradientUnits="userSpaceOnUse"><stop offset="0" stop-color="#ba4044"/><stop offset="1" stop-color="#b4303c"/></linearGradient><linearGradient id="linear-gradient-9" x1="249.45" y1="324.22" x2="299.08" y2="342.28" gradientUnits="userSpaceOnUse"><stop offset="0" stop-color="#972136"/><stop offset="1" stop-color="#9f2236"/></linearGradient><linearGradient id="linear-gradient-10" x1="206.95" y1="294.36" x2="291.47" y2="395.08" gradientUnits="userSpaceOnUse"><stop offset="0.04" stop-color="#b22c3a"/><stop offset="0.94" stop-color="#c04d53"/></linearGradient><linearGradient id="linear-gradient-11" x1="170.92" y1="418.56" x2="170.92" y2="325.07" gradientUnits="userSpaceOnUse"><stop offset="0.04" stop-color="#b22c3a"/><stop offset="0.94" stop-color="#9b2135"/></linearGradient><linearGradient id="linear-gradient-12" x1="394.88" y1="157.17" x2="441.68" y2="157.17" gradientUnits="userSpaceOnUse"><stop offset="0.04" stop-color="#fff"/><stop offset="0.74" stop-color="#f4e6d9"/></linearGradient><linearGradient id="linear-gradient-13" x1="317.72" y1="125.4" x2="393.23" y2="169" gradientUnits="userSpaceOnUse"><stop offset="0.04" stop-color="#fff"/><stop offset="0.9" stop-color="#f4e6d9"/></linearGradient></defs><title>ruby-on-rails</title><path class="cls-1" d="M467.88,465.28a48.24,48.24,0,0,1-48.24,48.25H132.12V134.72a48.25,48.25,0,0,1,48.25-48.25H467.88Z" transform="translate(-132.12 -86.47)"/><path class="cls-2" d="M460.14,460.74c0,25.65-19.25,44.92-44.92,44.92H139.86V139.26c0-25.65,19.25-44.91,44.92-44.91H460.14Z" transform="translate(-132.12 -86.47)"/><polygon class="cls-3" points="77.88 8.25 78.91 101.6 9.54 124.82 77.88 8.25"/><polygon class="cls-4" points="77.88 8.25 78.91 101.6 170.46 63.44 77.88 8.25"/><polygon class="cls-5" points="39.97 193.67 78.91 101.6 9.54 124.82 39.97 193.67"/><polygon class="cls-6" points="39.97 193.67 78.39 287.29 8.77 264.85 39.97 193.67"/><polygon class="cls-3" points="78.01 418.54 78.39 287.29 8.77 264.85 78.01 418.54"/><polygon class="cls-7" points="78.01 418.54 8.77 418.56 8.77 264.85 78.01 418.54"/><polygon class="cls-8" points="78.01 418.54 78.39 287.29 170.29 325.1 78.01 418.54"/><polygon class="cls-9" points="262.26 8.77 263.29 102.12 170.46 63.44 262.26 8.77"/><polygon class="cls-10" points="262.26 8.77 263.29 102.12 327.77 125.08 262.26 8.77"/><polygon class="cls-11" points="301.14 194.76 263.29 102.12 327.77 125.08 301.14 194.76"/><polygon class="cls-12" points="301.14 194.76 263.04 286.89 327.64 263.82 301.14 194.76"/><polygon class="cls-13" points="263.8 418.3 263.04 286.89 327.64 263.82 263.8 418.3"/><polygon class="cls-14" points="263.8 418.3 263.04 286.89 170.35 325.06 263.8 418.3"/><polygon class="cls-15" points="263.8 418.3 78.03 418.56 170.35 325.06 263.8 418.3"/><path class="cls-16" d="M312,308.8l20.89,9.58-2.13-14.89L311.7,293.24ZM153.53,358.67l27.2,3.1,5.93-25.29-26-4.62Zm96.76-175.1L232.5,170.41l-12.38,16.83,19.54,12.19Zm54.54-44.3-11.41-14.88-16.05,9.47,13.35,14.51Zm58.79-10.44L360,116.66l-19.33-1.56,5.6,13.35ZM429,144.11l-16.24-11.6v7.54l15.66,9.68ZM209.48,252.23l-22.24-9.67-7.54,22,22.82,8.51Zm110.73-10-4,13.64,14.31,13.16,3.58-12.68Zm91.39-61,11.89.59.1-5.53-12.38-2.51Zm-49.45-46c-57.21-2.78-159.63,51.44-174.33,269H328.1c-31.45-81.49-27.81-143-6.18-184.64,31.46-60.6,78.27-64.61,122-39.07,1.55-3.67,3.67-8.32,3.67-8.32C422.63,148.17,399.28,137,362.15,135.22Zm4.2,45.15,5.21,12.48,9.67-5.22-3.57-11.51Zm-31.73,28.34,10.64,14.61,6.57-9.57-9.28-14.42Zm16.25,170-6.58-16L320,358.22l6.39,18.37Z" transform="translate(-132.12 -86.47)"/><polygon class="cls-17" points="91.14 96.53 107.91 89.52 100.38 83.94 91.14 96.53"/><polygon class="cls-17" points="158.6 61.9 163.05 59.03 147.34 49.66 158.6 61.9"/><polygon class="cls-18" points="28.5 245.39 22.2 269.18 37.13 273.98 48.61 275.3 54.55 250.01 28.5 245.39"/><path class="cls-18" d="M195.76,337.8q-2.53,14.25-4.46,29.76l19.22,6.2Z" transform="translate(-132.12 -86.47)"/><polygon class="cls-19" points="22.2 269.18 21.41 272.2 37.13 273.98 22.2 269.18"/><path class="cls-19" d="M210.52,373.76l-19.22-6.2c-1.43,11.67-2.62,23.86-3.48,36.62h22.6Z" transform="translate(-132.12 -86.47)"/><polygon class="cls-20" points="78.31 317.71 152.34 317.71 78.39 287.29 78.31 317.71"/><path class="cls-21" d="M417.13,135.63l-4.37-3.12v7.54l10.52,6.5Zm11.75,20.86a108.3,108.3,0,0,0-34-16.3l.28,25.46c15.31,0,31.1,4.94,46.52,13.58ZM411.6,181.25l11.89.59.1-5.53-12.38-2.51Z" transform="translate(-132.12 -86.47)"/><path class="cls-22" d="M394.88,140.19a145.5,145.5,0,0,0-32.73-5c-16.81-.81-37.53,3.3-58.78,15l58.25,24.28a66.69,66.69,0,0,1,33.54-8.87Zm-31.26-11.36L360,116.66l-1.33-.12-13.92,8.29,1.52,3.62Zm7.63,49.69,8.22,3.43-1.81-5.83Z" transform="translate(-132.12 -86.47)"/><path class="cls-17" d="M211.8,453.19V442.84c0-5.52-5.5-15.43-15.57-15.43H163.45v62h16.77V471.36l13.54,18.06h20.11l-15.73-20.9S211.8,465.83,211.8,453.19Zm-16.5,3.09H180.08V443.76H195.3Zm65.12-29.15H245.2c-7.61,0-15.6,7-15.6,16.13v45.89h16.5V477h14.83v12.11H277.7v-46C277.7,434.11,269.57,427.13,260.42,427.13Zm.51,33.27H246.1V443.77h14.83Zm153.48-10.89H398.26v-6.77h28.33V427.36H398.16c-10,0-16.83,7.93-16.83,15.86v6.58c0,9.57,8.61,16.25,16.64,16.25h15v7.54H382.4v15.66h30.16c9,0,17.13-6.77,17.13-15v-8.22C429.69,456.08,421.76,449.51,414.41,449.51ZM346.8,427.26H330.18v62.09h41.48V472.71H346.8Zm-51.25,62.09h16.64V427.26H295.55Z" transform="translate(-132.12 -86.47)"/></svg>